<svg version="1.1" id="svg2" inkscape:version="0.48.5 r10040" xmlns:cc="http://creativecommons.org/ns#" xmlns:dc="http://purl.org/dc/elements/1.1/" xmlns:inkscape="http://www.inkscape.org/namespaces/inkscape" xmlns:rdf="http://www.w3.org/1999/02/22-rdf-syntax-ns#" xmlns:sodipodi="http://sodipodi.sourceforge.net/DTD/sodipodi-0.dtd" xmlns:svg="http://www.w3.org/2000/svg" xmlns="http://www.w3.org/2000/svg" xmlns:xlink="http://www.w3.org/1999/xlink" x="0px" y="0px" viewBox="0 0 325.8 88" style="enable-background:new 0 0 325.8 88;" xml:space="preserve">
 <style type="text/css">
  .st0{fill:#2A3F83;}
	.st1{fill:#EC3B33;}
 </style>
 <sodipodi:namedview bordercolor="#666666" borderopacity="1" fit-margin-bottom="0" fit-margin-left="0" fit-margin-right="0" fit-margin-top="0" gridtolerance="10" guidetolerance="10" id="namedview4" inkscape:current-layer="g10" inkscape:cx="1586.0739" inkscape:cy="126.34456" inkscape:pageopacity="0" inkscape:pageshadow="2" inkscape:window-height="669" inkscape:window-maximized="1" inkscape:window-width="1280" inkscape:window-x="0" inkscape:window-y="1" inkscape:zoom="0.22425732" objecttolerance="10" pagecolor="#ffffff" showgrid="false">
 </sodipodi:namedview>
 <g id="g10" transform="matrix(1.25,0,0,-1.25,-357.09363,928.59013)" inkscape:groupmode="layer" inkscape:label="CP_JFTassin_ENSIM">
  <g id="g234" transform="matrix(2.0431356,0,0,2.0431356,-569.85932,-774.9163)">
   <g>
    <defs>
     <rect id="SVGID_1_" x="-462.5" y="-654.1" width="1520.3" height="2150.1">
     </rect>
    </defs>
    <clipPath id="SVGID_2_">
     <use href="#SVGID_1_" style="overflow:visible;">
     </use>
    </clipPath>
   </g>
  </g>
  <g id="g250" transform="matrix(2.0431356,0,0,2.0431356,-569.85932,-774.9163)">
   <g>
    <defs>
     <rect id="SVGID_3_" x="-462.5" y="-654.1" width="1520.3" height="2150.1">
     </rect>
    </defs>
    <clipPath id="SVGID_4_">
     <use xlink:href="#SVGID_3_" style="overflow:visible;">
     </use>
    </clipPath>
   </g>
  </g>
  <g id="g284" transform="matrix(2.0431356,0,0,2.0431356,-569.85932,-774.9163)">
   <g>
    <defs>
     <rect id="SVGID_5_" x="-462.5" y="-654.1" width="1520.3" height="2150.1">
     </rect>
    </defs>
    <clipPath id="SVGID_6_">
     <use xlink:href="#SVGID_5_" style="overflow:visible;">
     </use>
    </clipPath>
   </g>
  </g>
  <g id="g306" transform="matrix(2.0431356,0,0,2.0431356,-569.85932,-774.9163)">
   <g>
    <defs>
     <rect id="SVGID_7_" x="-462.5" y="-654.1" width="1520.3" height="2150.1">
     </rect>
    </defs>
    <clipPath id="SVGID_8_">
     <use xlink:href="#SVGID_7_" style="overflow:visible;">
     </use>
    </clipPath>
   </g>
  </g>
 </g>
 <g>
  <g id="g230" transform="matrix(2.0431356,0,0,2.0431356,358.26136,742.8721)">
   <path id="path232" inkscape:connector-curvature="0" class="st0" d="M-130.9-363.6v17.3h11.9v-2.9h-8.6v-14.4H-130.9z">
   </path>
  </g>
  <g id="g236">
   <g id="g242" transform="translate(467.5574,734.9211)">
    <path id="path244" inkscape:connector-curvature="0" class="st0" d="M-342.9-714.6c0-0.6,0.1-1.3,0.4-1.9
				c0.3-0.6,0.7-1.2,1.2-1.7c0.5-0.5,1.2-0.9,2-1.3c0.8-0.3,1.7-0.5,2.7-0.5c1,0,1.8,0.2,2.6,0.5c0.8,0.3,1.4,0.8,1.8,1.3
				c0.5,0.5,0.8,1.1,1.1,1.7c0.2,0.6,0.4,1.3,0.4,1.9H-342.9z M-324.2-711c0-1.8-0.2-3.5-0.6-5.2c-0.4-1.7-1.1-3.2-2.1-4.6
				c-1-1.3-2.2-2.4-3.8-3.3c-1.6-0.8-3.5-1.2-5.8-1.2c-1.9,0-3.6,0.3-5.1,1c-1.5,0.7-2.9,1.6-4,2.8c-1.1,1.2-2,2.5-2.6,4.1
				c-0.6,1.6-0.9,3.3-0.9,5.1c0,2,0.3,3.9,0.9,5.5c0.6,1.7,1.5,3.1,2.7,4.3c1.2,1.2,2.6,2.1,4.2,2.8c1.6,0.7,3.4,1,5.4,1
				c2,0,3.6-0.2,5-0.6c1.4-0.4,2.6-0.9,3.5-1.4c0.9-0.5,1.6-1,2.1-1.5c0.5-0.5,0.8-0.8,0.9-0.9l-3.4-3.8c-0.2,0.2-0.5,0.5-0.9,0.8
				c-0.4,0.3-0.9,0.7-1.6,1c-0.6,0.3-1.4,0.6-2.3,0.8c-0.9,0.2-2,0.3-3.2,0.3c-0.8,0-1.6-0.1-2.5-0.4c-0.8-0.3-1.6-0.7-2.2-1.2
				c-0.7-0.5-1.2-1.2-1.6-1.9c-0.4-0.7-0.6-1.6-0.6-2.5h18.6C-324.2-710.1-324.2-711-324.2-711z">
    </path>
   </g>
  </g>
  <g id="g246" transform="matrix(2.0431356,0,0,2.0431356,434.15547,742.8721)">
   <path id="path248" inkscape:connector-curvature="0" class="st0" d="M-121.7-363.6l-4.7,8.2l-4.8-8.2h-3.1l-0.8,17.3h3.1l0.6-11.8
			l4.2,6.9h1.5l4.2-7.1l0.6,12h3.2l-0.8-17.3H-121.7z">
   </path>
  </g>
  <g id="g252">
   <g id="g258" transform="translate(502.8034,732.4691)">
    <path id="path260" inkscape:connector-curvature="0" class="st0" d="M-288.1-705.9c0,0.6-0.2,1.2-0.5,1.8
				c-0.3,0.6-0.8,1.1-1.3,1.5c-0.5,0.4-1.1,0.8-1.8,1c-0.7,0.3-1.4,0.4-2.2,0.4c-1.5,0-2.6-0.3-3.4-0.9c-0.8-0.6-1.1-1.4-1.1-2.5
				c0-1,0.4-1.9,1.2-2.7c0.8-0.8,2.2-1.2,4.3-1.2c0.4,0,0.9,0,1.4,0c0.5,0,1.1,0,1.6,0.1c0.6,0,1.2,0.1,1.9,0.1V-705.9z
				 M-282.8-717.4c-0.5-1.1-1.2-2.1-2.1-2.9c-0.9-0.8-2-1.4-3.3-1.9c-1.3-0.4-2.7-0.7-4.3-0.7c-1.5,0-2.8,0.1-3.9,0.3
				c-1.1,0.2-2.1,0.4-3,0.7c-0.9,0.3-1.6,0.6-2.2,1c-0.6,0.4-1.2,0.7-1.7,1.1l2.9,4.2c0.8-0.5,1.8-1,2.8-1.5
				c1.1-0.5,2.5-0.7,4.3-0.7c1.6,0,2.9,0.4,3.9,1.1c1,0.7,1.5,1.7,1.5,2.9v0.6c-0.7,0-1.3-0.1-2-0.1c-0.6,0-1.2-0.1-1.8-0.1
				c-0.6,0-1.2,0-1.6,0c-1.6,0-3.1,0.2-4.5,0.6c-1.4,0.4-2.5,1-3.5,1.7c-1,0.8-1.7,1.7-2.2,2.8c-0.5,1.1-0.8,2.4-0.8,3.8
				c0,1.4,0.3,2.6,0.8,3.6c0.5,1,1.2,1.9,2,2.5s1.8,1.1,2.8,1.5c1,0.3,2,0.5,3.1,0.5c1.7,0,3.3-0.3,4.6-1c1.4-0.6,2.4-1.4,3.1-2.2
				l0.2,2.3h5.9v-16.7C-282.1-715.1-282.3-716.3-282.8-717.4">
    </path>
   </g>
   <g id="g262" transform="translate(515.7021,737.878)">
    <path id="path264" inkscape:connector-curvature="0" class="st0" d="M-268.1-725.1c-1.6-1.9-4-2.8-7.1-2.8c-1,0-1.9,0.1-2.7,0.3
				c-0.8,0.2-1.5,0.5-2.1,0.8c-0.6,0.3-1.2,0.7-1.6,1.1c-0.4,0.4-0.8,0.8-1.1,1.1l-0.2-2.8h-6v24.9h6.3V-716c0-0.9,0.1-1.8,0.4-2.6
				c0.3-0.8,0.7-1.5,1.3-2.1c0.5-0.6,1.2-1.1,1.9-1.4c0.7-0.3,1.5-0.5,2.4-0.5c1.4,0,2.5,0.4,3.4,1.3c0.9,0.9,1.3,2.1,1.3,3.7v15.1
				h6.3v-15.1C-265.6-720.8-266.4-723.3-268.1-725.1">
    </path>
   </g>
   <g id="g266" transform="translate(526.7836,732.9772)">
    <path id="path268" inkscape:connector-curvature="0" class="st0" d="M-250.8-707.7c-0.4-0.9-1-1.6-1.7-2.3
				c-0.7-0.6-1.6-1.2-2.6-1.6c-1-0.4-2.2-0.8-3.4-1.1c-2.1-0.5-3.6-1-4.6-1.4c-1-0.4-1.5-1-1.5-1.8c0-0.6,0.3-1.2,0.9-1.6
				s1.6-0.7,3.1-0.7c1.5,0,2.8,0.2,3.9,0.6c1.1,0.4,2,0.9,2.7,1.4l3.2-4.4c-1.2-0.9-2.6-1.6-4.2-2.1c-1.5-0.5-3.4-0.7-5.6-0.7
				c-1.2,0-2.5,0.2-3.7,0.5c-1.2,0.4-2.3,0.9-3.3,1.5c-1,0.7-1.8,1.5-2.4,2.4c-0.6,1-0.9,2.1-0.9,3.3c0,1.2,0.3,2.2,0.8,3.1
				c0.5,0.9,1.2,1.6,2,2.2s1.7,1.1,2.6,1.5c0.9,0.4,1.8,0.6,2.7,0.9c1.4,0.3,2.5,0.6,3.3,0.9c0.8,0.3,1.5,0.6,1.9,0.8
				c0.5,0.3,0.8,0.6,0.9,0.9c0.1,0.3,0.2,0.6,0.2,1c0,0.8-0.4,1.4-1.2,1.7c-0.8,0.4-1.9,0.5-3.3,0.5c-1.5,0-2.9-0.3-4.1-0.8
				c-1.2-0.5-2.2-1.2-3-1.9l-3.8,4.1c1.1,1.3,2.6,2.2,4.5,2.9c1.9,0.7,4,1,6.3,1c1.5,0,2.8-0.2,4.1-0.6c1.3-0.4,2.4-0.9,3.4-1.6
				c1-0.7,1.7-1.5,2.3-2.5c0.6-1,0.9-2.1,0.9-3.3C-250.3-705.8-250.4-706.8-250.8-707.7">
    </path>
   </g>
   <g id="g270" transform="translate(462.8824,722.6494)">
    <path id="path272" inkscape:connector-curvature="0" class="st0" d="M-350.1-671v21.2c0,1.3-0.1,2.6-0.4,3.6
				c-0.3,1.1-0.7,2-1.3,2.8c-0.6,0.8-1.4,1.3-2.4,1.7c-1,0.4-2.2,0.6-3.7,0.6c-1.5,0-2.7-0.2-3.7-0.6c-1-0.4-1.8-1-2.4-1.7
				c-0.6-0.8-1-1.7-1.3-2.8c-0.3-1.1-0.4-2.3-0.4-3.6V-671h-6.7v22.3c0,2,0.3,3.8,1,5.5c0.6,1.7,1.6,3.2,2.8,4.4
				c1.2,1.3,2.8,2.2,4.6,3c1.8,0.7,3.8,1.1,6.2,1.1c2.3,0,4.4-0.4,6.2-1.1c1.8-0.7,3.3-1.7,4.6-3c1.2-1.3,2.2-2.7,2.8-4.4
				c0.6-1.7,1-3.5,1-5.5V-671H-350.1z">
    </path>
   </g>
   <g id="g274" transform="translate(476.2382,717.6582)">
    <path id="path276" inkscape:connector-curvature="0" class="st0" d="M-329.4-653.3c-1.6-1.9-4-2.8-7.1-2.8c-1,0-1.9,0.1-2.7,0.3
				c-0.8,0.2-1.5,0.5-2.1,0.8c-0.6,0.3-1.2,0.7-1.6,1.1c-0.5,0.4-0.8,0.8-1.1,1.1l-0.2-2.8h-6v24.9h6.3v-13.5c0-0.9,0.1-1.8,0.5-2.6
				c0.3-0.8,0.7-1.5,1.2-2.1c0.5-0.6,1.2-1.1,1.9-1.4c0.8-0.3,1.6-0.5,2.4-0.5c1.4,0,2.5,0.4,3.4,1.3c0.9,0.9,1.3,2.1,1.3,3.7v15.1
				h6.3v-15.1C-326.9-648.9-327.7-651.4-329.4-653.3">
    </path>
   </g>
  </g>
  <path id="path278" inkscape:connector-curvature="0" class="st0" d="M155.6,87h6.3V62.1h-6.3V87z M155.4,58.2h6.7v-6.6h-6.7V58.2z">
  </path>
  <g id="g280" transform="matrix(2.0431356,0,0,2.0431356,434.66932,693.16057)">
   <path id="path282" inkscape:connector-curvature="0" class="st0" d="M-121.6-308.8l-3.3,8.7l-3.3-8.7h-3.5l5.2,12.2h3.1l5.2-12.2
			H-121.6z">
   </path>
  </g>
  <g id="g286">
   <g id="g292" transform="translate(497.2518,714.6987)">
    <path id="path294" inkscape:connector-curvature="0" class="st0" d="M-296.7-642.7c0-0.6,0.1-1.3,0.4-1.9
				c0.3-0.6,0.7-1.2,1.2-1.7c0.5-0.5,1.2-0.9,2-1.3c0.8-0.3,1.7-0.5,2.7-0.5c1,0,1.8,0.2,2.6,0.5c0.7,0.3,1.4,0.8,1.8,1.3
				c0.5,0.5,0.8,1.1,1.1,1.7c0.2,0.6,0.4,1.3,0.4,1.9H-296.7z M-278-639.1c0-1.8-0.2-3.5-0.6-5.2c-0.4-1.7-1.1-3.2-2.1-4.6
				c-1-1.3-2.2-2.4-3.8-3.3c-1.6-0.8-3.5-1.2-5.8-1.2c-1.9,0-3.6,0.3-5.1,1c-1.5,0.7-2.9,1.6-4,2.8c-1.1,1.2-2,2.5-2.6,4.1
				c-0.6,1.6-0.9,3.3-0.9,5.1c0,2,0.3,3.9,0.9,5.5c0.6,1.7,1.5,3.1,2.7,4.3c1.2,1.2,2.6,2.1,4.2,2.8c1.6,0.7,3.4,1,5.4,1
				c2,0,3.6-0.2,5-0.6c1.4-0.4,2.6-0.9,3.5-1.4c0.9-0.5,1.6-1,2.1-1.5c0.5-0.5,0.8-0.8,0.9-0.9l-3.4-3.8c-0.2,0.2-0.5,0.5-0.9,0.8
				c-0.4,0.3-0.9,0.7-1.6,1c-0.6,0.3-1.4,0.6-2.3,0.8c-0.9,0.2-2,0.3-3.2,0.3c-0.8,0-1.6-0.1-2.5-0.4c-0.8-0.3-1.6-0.7-2.2-1.2
				c-0.7-0.5-1.2-1.2-1.6-1.9c-0.4-0.7-0.6-1.6-0.6-2.5h18.7C-278-638.2-278-639.1-278-639.1z">
    </path>
   </g>
   <g id="g296" transform="translate(512.4761,718.6846)">
    <path id="path298" inkscape:connector-curvature="0" class="st0" d="M-273.1-656.9c-0.5-0.1-1-0.1-1.6-0.1c-1,0-1.9,0.1-2.7,0.4
				c-0.8,0.2-1.5,0.5-2.1,0.9c-0.6,0.4-1.1,0.7-1.6,1.2c-0.4,0.4-0.8,0.8-1.1,1.2l-0.2-3.1h-6v24.9h6.3v-13.4c0-0.9,0.2-1.7,0.5-2.5
				c0.3-0.7,0.8-1.4,1.4-1.9c0.6-0.5,1.2-0.9,2-1.2c0.8-0.3,1.6-0.4,2.5-0.4c0.6,0,1.1,0,1.6,0.1c0.4,0.1,0.9,0.2,1.3,0.4l1.3-5.9
				C-272.1-656.7-272.6-656.8-273.1-656.9">
    </path>
   </g>
   <g id="g300" transform="translate(521.6705,712.7575)">
    <path id="path302" inkscape:connector-curvature="0" class="st0" d="M-258.8-635.8c-0.4-0.9-1-1.6-1.7-2.3
				c-0.7-0.6-1.6-1.2-2.6-1.6c-1-0.4-2.2-0.8-3.4-1.1c-2.1-0.5-3.6-1-4.6-1.4c-1-0.4-1.5-1.1-1.5-1.8c0-0.6,0.3-1.2,0.9-1.6
				c0.6-0.4,1.6-0.7,3.1-0.7c1.5,0,2.8,0.2,3.9,0.6c1.1,0.4,2,0.9,2.7,1.3l3.3-4.4c-1.2-0.9-2.6-1.6-4.2-2.1
				c-1.6-0.5-3.4-0.7-5.6-0.7c-1.2,0-2.5,0.2-3.7,0.5c-1.2,0.4-2.3,0.9-3.3,1.5c-1,0.7-1.8,1.5-2.4,2.4c-0.6,1-0.9,2.1-0.9,3.3
				c0,1.2,0.3,2.2,0.8,3.1c0.5,0.9,1.2,1.6,2,2.2s1.7,1.1,2.6,1.5c0.9,0.4,1.8,0.6,2.7,0.8c1.4,0.3,2.5,0.6,3.3,0.9
				c0.8,0.3,1.5,0.6,1.9,0.8c0.5,0.3,0.8,0.6,0.9,0.9c0.1,0.3,0.2,0.6,0.2,1c0,0.8-0.4,1.4-1.2,1.7c-0.8,0.4-1.9,0.5-3.2,0.5
				c-1.5,0-2.9-0.3-4.1-0.8c-1.2-0.5-2.2-1.2-3-1.9l-3.8,4.1c1.1,1.3,2.6,2.2,4.5,2.9c1.9,0.7,4,1,6.3,1c1.5,0,2.8-0.2,4.1-0.6
				c1.3-0.4,2.4-0.9,3.4-1.6c1-0.7,1.7-1.5,2.3-2.5c0.6-1,0.9-2.1,0.9-3.3C-258.2-633.9-258.4-635-258.8-635.8">
    </path>
   </g>
  </g>
  <path id="path304" inkscape:connector-curvature="0" class="st0" d="M268.9,87h6.3V62.1h-6.3V87z M268.6,58.2h6.7v-6.6h-6.7V58.2z">
  </path>
  <g id="g308">
   <g id="g314" transform="translate(535.0665,711.1274)">
    <path id="path316" inkscape:connector-curvature="0" class="st0" d="M-238-630.1c-0.5,0.4-1.1,0.7-1.7,1
				c-0.6,0.3-1.4,0.4-2.4,0.4c-1.1,0-1.8-0.4-2.3-1.1c-0.5-0.8-0.7-1.8-0.7-3.3v-10.9h6.7v-5.1h-6.7v-8.1h-6.3v8.1h-4.3v5.1h4.3
				v11.3c0,1.4,0.1,2.6,0.4,3.8c0.3,1.2,0.8,2.1,1.4,2.9s1.5,1.4,2.6,1.9c1.1,0.4,2.4,0.7,3.9,0.7c1.5,0,2.8-0.2,4-0.7
				c1.2-0.4,2.4-1.2,3.7-2.2L-238-630.1z">
    </path>
   </g>
   <g id="g318" transform="translate(541.4546,722.9633)">
    <path id="path320" inkscape:connector-curvature="0" class="st0" d="M-228-672.1l-2.6,7.5h5.1l4.2-7.5H-228z M-234.4-651
				c0-0.6,0.1-1.3,0.4-1.9s0.7-1.2,1.2-1.7c0.5-0.5,1.2-0.9,2-1.3c0.8-0.3,1.7-0.5,2.7-0.5c1,0,1.8,0.2,2.6,0.5
				c0.7,0.3,1.4,0.8,1.8,1.3c0.5,0.5,0.8,1.1,1.1,1.7c0.2,0.6,0.4,1.3,0.4,1.9C-222.1-651-234.4-651-234.4-651z M-215.7-647.4
				c0-1.8-0.2-3.5-0.6-5.2c-0.4-1.7-1.1-3.2-2.1-4.6c-1-1.3-2.2-2.4-3.8-3.3c-1.6-0.8-3.5-1.2-5.8-1.2c-1.9,0-3.6,0.3-5.1,1
				c-1.5,0.7-2.9,1.6-4,2.8c-1.1,1.2-2,2.5-2.6,4.1c-0.6,1.6-0.9,3.3-0.9,5.1c0,2,0.3,3.9,0.9,5.5c0.6,1.7,1.5,3.1,2.7,4.3
				c1.2,1.2,2.6,2.1,4.2,2.8c1.6,0.7,3.4,1,5.4,1c2,0,3.6-0.2,5-0.6c1.4-0.4,2.6-0.9,3.5-1.4c0.9-0.5,1.6-1,2.1-1.5
				c0.5-0.5,0.8-0.8,0.9-0.9l-3.4-3.8c-0.2,0.2-0.5,0.5-0.9,0.8c-0.4,0.3-0.9,0.7-1.6,1c-0.6,0.3-1.4,0.6-2.3,0.8
				c-0.9,0.2-2,0.3-3.2,0.3c-0.8,0-1.6-0.1-2.5-0.4c-0.8-0.3-1.6-0.7-2.2-1.2c-0.7-0.5-1.2-1.2-1.6-1.9c-0.4-0.7-0.6-1.6-0.6-2.5
				h18.7C-215.7-646.5-215.7-647.4-215.7-647.4z">
    </path>
   </g>
   <g id="g322" transform="translate(440.7059,733.8628)">
    <path id="path324" inkscape:connector-curvature="0" class="st1" d="M-384.6-710.9l-7.2,11l0.7,4.8h-6.9l-1-6.5l6.4-9.7h-23.4
				l6.3,9.7l-1,6.5h-6.9l0.7-4.9l-7.2-10.9v-11.6h5.8l2.8,4.3h5.8l2.8-4.3h4.7l2.8,4.3h5.8l2.8-4.3h5.8V-710.9z M-392.6-660.5
				l-2.7-17.6l-7.7,11.7h-2.5l-7.7-11.7l-2.7,17.5h-6.9l4.2-27.2h7.3l7,10.7l7-10.7h7.3l4.2,27.2
				C-385.7-660.5-392.6-660.5-392.6-660.5z M-368.1-733.8h-72.6l0.1,51.8c0,20,16.3,36.1,36.4,36.1c20.1,0,36.3-16.2,36.3-36.2
				L-368.1-733.8z">
    </path>
   </g>
  </g>
 </g>
</svg>